<?xml version="1.0" encoding="UTF-8" standalone="no"?>
<svg width="187px" height="151px" viewBox="0 0 187 151" version="1.1" xmlns="http://www.w3.org/2000/svg" xmlns:xlink="http://www.w3.org/1999/xlink" xmlns:sketch="http://www.bohemiancoding.com/sketch/ns">
    <!-- Generator: Sketch 3.0.3 (7892) - http://www.bohemiancoding.com/sketch -->
    <title>Motif</title>
    <desc>Created with Sketch.</desc>
    <defs></defs>
    <g id="Page-1" stroke="none" stroke-width="1" fill="none" fill-rule="evenodd" sketch:type="MSPage">
        <g id="Group-11" sketch:type="MSLayerGroup" transform="translate(92.902943, 131.929234) scale(-1, 1) translate(-92.902943, -131.929234) translate(62.902943, 95.929234)" stroke="#ECEFF1" stroke-width="6" stroke-linecap="square">
            <path d="M30.0709122,0.19162641 L30.0709122,54.2805449 C30.0709122,54.2805449 50.1529845,65.9959811 60.1940206,71.8536991" id="Line-16" sketch:type="MSShapeGroup"></path>
            <path d="M45.3612066,7.44157522 L45.3612066,44.0870154 C45.3612066,44.0870154 55.2102796,49.8327464 60.1348162,52.705612" id="Line-12" sketch:type="MSShapeGroup"></path>
            <path d="M0,3.31289711 L0,54.2805449 C0,54.2805449 20.0901732,66.0007069 30.1352598,71.8607879" id="Line-13" sketch:type="MSShapeGroup" transform="translate(15.035456, 37.716059) scale(-1, 1) translate(-15.035456, -37.716059) "></path>
            <path d="M-1.77635684e-15,7.85518963 L-1.77635684e-15,44.0870154 C-1.77635684e-15,44.0870154 9.9626558,49.8990081 14.9439837,52.8050044" id="Line-15" sketch:type="MSShapeGroup" transform="translate(7.390309, 30.325750) scale(-1, 1) translate(-7.390309, -30.325750) "></path>
        </g>
        <g id="Group-14" sketch:type="MSLayerGroup" transform="translate(46.522384, 169.135617) scale(-1, 1) translate(-46.522384, -169.135617) translate(16.522384, 133.135617)" stroke="#ECEFF1" stroke-width="6" stroke-linecap="square">
            <path d="M30.0709122,0.19162641 L30.0709122,54.2805449 C30.0709122,54.2805449 50.1529845,65.9959811 60.1940206,71.8536991" id="Line-16" sketch:type="MSShapeGroup"></path>
            <path d="M45.3612066,7.44157522 L45.3612066,44.0870154 C45.3612066,44.0870154 55.2102796,49.8327464 60.1348162,52.705612" id="Line-12" sketch:type="MSShapeGroup"></path>
            <path d="M-3.55271368e-15,3.31289711 L-3.55271368e-15,54.2805449 C-3.55271368e-15,54.2805449 20.0901732,66.0007069 30.1352598,71.8607879" id="Line-13" sketch:type="MSShapeGroup" transform="translate(15.035456, 37.716059) scale(-1, 1) translate(-15.035456, -37.716059) "></path>
            <path d="M-5.32907052e-15,7.85518963 L-5.32907052e-15,44.0870154 C-5.32907052e-15,44.0870154 9.9626558,49.8990081 14.9439837,52.8050044" id="Line-15" sketch:type="MSShapeGroup" transform="translate(7.390309, 30.325750) scale(-1, 1) translate(-7.390309, -30.325750) "></path>
        </g>
        <g id="Group-16" sketch:type="MSLayerGroup" transform="translate(0.141824, 131.929234) scale(-1, 1) translate(-0.141824, -131.929234) translate(-29.858176, 95.929234)" stroke="#ECEFF1" stroke-width="6" stroke-linecap="square">
            <path d="M30.0709122,0.19162641 L30.0709122,54.2805449 C30.0709122,54.2805449 50.1529845,65.9959811 60.1940206,71.8536991" id="Line-16" sketch:type="MSShapeGroup"></path>
            <path d="M0,3.31289711 L0,54.2805449 C0,54.2805449 20.0901732,66.0007069 30.1352598,71.8607879" id="Line-13" sketch:type="MSShapeGroup" transform="translate(15.035456, 37.716059) scale(-1, 1) translate(-15.035456, -37.716059) "></path>
            <path d="M-1.77635684e-15,7.85518963 L-1.77635684e-15,44.0870154 C-1.77635684e-15,44.0870154 9.9626558,49.8990081 14.9439837,52.8050044" id="Line-15" sketch:type="MSShapeGroup" transform="translate(7.390309, 30.325750) scale(-1, 1) translate(-7.390309, -30.325750) "></path>
        </g>
        <g id="Group-12" sketch:type="MSLayerGroup" transform="translate(46.522384, 101.213174) scale(-1, 1) translate(-46.522384, -101.213174) translate(16.522384, 58.213174)" stroke="#ECEFF1" stroke-width="6" stroke-linecap="square">
            <path d="M30.0709122,0.19162641 L30.0709122,54.2805449 C30.0709122,54.2805449 50.1529845,65.9959811 60.1940206,71.8536991" id="Line-16" sketch:type="MSShapeGroup"></path>
            <path d="M7.63148113,85.2890342 C15.1112915,80.8990967 30.0709122,72.1192217 30.0709122,72.1192217 L53.1631028,85.5906942" id="Line-11" sketch:type="MSShapeGroup"></path>
            <path d="M45.3612066,7.44157522 L45.3612066,44.0870154 C45.3612066,44.0870154 55.2102796,49.8327464 60.1348162,52.705612" id="Line-12" sketch:type="MSShapeGroup"></path>
            <path d="M-3.55271368e-15,3.31289711 L-3.55271368e-15,54.2805449 C-3.55271368e-15,54.2805449 20.0901732,66.0007069 30.1352598,71.8607879" id="Line-13" sketch:type="MSShapeGroup" transform="translate(15.035456, 37.716059) scale(-1, 1) translate(-15.035456, -37.716059) "></path>
            <path d="M-5.32907052e-15,7.85518963 L-5.32907052e-15,44.0870154 C-5.32907052e-15,44.0870154 9.9626558,49.8990081 14.9439837,52.8050044" id="Line-15" sketch:type="MSShapeGroup" transform="translate(7.390309, 30.325750) scale(-1, 1) translate(-7.390309, -30.325750) "></path>
        </g>
        <g id="Group-34" sketch:type="MSLayerGroup" transform="translate(92.902943, -11.415651) scale(-1, 1) translate(-92.902943, 11.415651) translate(62.902943, -53.915651)" stroke="#ECEFF1" stroke-width="6" stroke-linecap="square">
            <path d="M30.0709122,0.19162641 L30.0709122,54.2805449 L60.1940206,71.8536991" id="Line-16" sketch:type="MSShapeGroup"></path>
            <path d="M7.63148113,85.2890342 C15.1112915,80.8990967 30.0709122,72.1192217 30.0709122,72.1192217 L52.6522546,85.2926766" id="Line-11" sketch:type="MSShapeGroup"></path>
            <path d="M0,3.31289711 L0,54.2805449 C0,54.2805449 20.0901732,66.0007069 30.1352598,71.8607879" id="Line-13" sketch:type="MSShapeGroup" transform="translate(15.035456, 37.716059) scale(-1, 1) translate(-15.035456, -37.716059) "></path>
        </g>
        <g id="Group-29" sketch:type="MSLayerGroup" transform="translate(92.902943, 63.506791) scale(-1, 1) translate(-92.902943, -63.506791) translate(62.902943, 21.006791)" stroke="#ECEFF1" stroke-width="6" stroke-linecap="square">
            <path d="M30.0709122,0.19162641 L30.0709122,54.2805449 C30.0709122,54.2805449 50.1529845,65.9959811 60.1940206,71.8536991" id="Line-16" sketch:type="MSShapeGroup"></path>
            <path d="M7.63148113,85.2890342 C15.1112915,80.8990967 30.0709122,72.1192217 30.0709122,72.1192217 C30.0709122,72.1192217 45.1251405,80.901525 52.6522546,85.2926766" id="Line-11" sketch:type="MSShapeGroup"></path>
            <path d="M45.3612066,7.44157522 L45.3612066,44.0870154 C45.3612066,44.0870154 55.2102796,49.8327464 60.1348162,52.705612" id="Line-12" sketch:type="MSShapeGroup"></path>
            <path d="M0,3.31289711 L0,54.2805449 C0,54.2805449 20.0901732,66.0007069 30.1352598,71.8607879" id="Line-13" sketch:type="MSShapeGroup" transform="translate(15.035456, 37.716059) scale(-1, 1) translate(-15.035456, -37.716059) "></path>
            <path d="M-1.77635684e-15,7.85518963 L-1.77635684e-15,44.0870154 C-1.77635684e-15,44.0870154 9.9626558,49.8990081 14.9439837,52.8050044" id="Line-15" sketch:type="MSShapeGroup" transform="translate(7.390309, 30.325750) scale(-1, 1) translate(-7.390309, -30.325750) "></path>
        </g>
        <g id="Group-30" sketch:type="MSLayerGroup" transform="translate(46.522384, 25.790732) scale(-1, 1) translate(-46.522384, -25.790732) translate(16.522384, -16.709268)" stroke="#ECEFF1" stroke-width="6" stroke-linecap="square">
            <path d="M30.0709122,0.19162641 L30.0709122,54.2805449 C30.0709122,54.2805449 50.1529845,65.9959811 60.1940206,71.8536991" id="Line-16" sketch:type="MSShapeGroup"></path>
            <path d="M7.63148113,85.2890342 C15.1112915,80.8990967 30.0709122,72.1192217 30.0709122,72.1192217 C30.0709122,72.1192217 45.1251405,80.901525 52.6522546,85.2926766" id="Line-11" sketch:type="MSShapeGroup"></path>
            <path d="M45.3612066,7.44157522 L45.3612066,44.0870154 C45.3612066,44.0870154 55.2102796,49.8327464 60.1348162,52.705612" id="Line-12" sketch:type="MSShapeGroup"></path>
            <path d="M-3.55271368e-15,3.31289711 L-3.55271368e-15,54.2805449 C-3.55271368e-15,54.2805449 20.0901732,66.0007069 30.1352598,71.8607879" id="Line-13" sketch:type="MSShapeGroup" transform="translate(15.035456, 37.716059) scale(-1, 1) translate(-15.035456, -37.716059) "></path>
            <path d="M-5.32907052e-15,7.85518963 L-5.32907052e-15,44.0870154 C-5.32907052e-15,44.0870154 9.9626558,49.8990081 14.9439837,52.8050044" id="Line-15" sketch:type="MSShapeGroup" transform="translate(7.390309, 30.325750) scale(-1, 1) translate(-7.390309, -30.325750) "></path>
        </g>
        <g id="Group-31" sketch:type="MSLayerGroup" transform="translate(0.141824, 63.506791) scale(-1, 1) translate(-0.141824, -63.506791) translate(-29.858176, 21.006791)" stroke="#ECEFF1" stroke-width="6" stroke-linecap="square">
            <path d="M30.0709122,0.19162641 L30.0709122,54.2805449 C30.0709122,54.2805449 50.1529845,65.9959811 60.1940206,71.8536991" id="Line-16" sketch:type="MSShapeGroup"></path>
            <path d="M7.63148113,85.2890342 C15.1112915,80.8990967 30.0709122,72.1192217 30.0709122,72.1192217 L52.6522546,85.2926766" id="Line-11" sketch:type="MSShapeGroup"></path>
            <path d="M0,3.31289711 L0,54.2805449 C0,54.2805449 20.0901732,66.0007069 30.1352598,71.8607879" id="Line-13" sketch:type="MSShapeGroup" transform="translate(15.035456, 37.716059) scale(-1, 1) translate(-15.035456, -37.716059) "></path>
            <path d="M-1.77635684e-15,7.85518963 L-1.77635684e-15,44.0870154 C-1.77635684e-15,44.0870154 9.9626558,49.8990081 14.9439837,52.8050044" id="Line-15" sketch:type="MSShapeGroup" transform="translate(7.390309, 30.325750) scale(-1, 1) translate(-7.390309, -30.325750) "></path>
        </g>
        <g id="Group-32" sketch:type="MSLayerGroup" transform="translate(0.141824, -11.415651) scale(-1, 1) translate(-0.141824, 11.415651) translate(-29.858176, -53.915651)" stroke="#ECEFF1" stroke-width="6" stroke-linecap="square">
            <path d="M30.0709122,0.19162641 L30.0709122,54.2805449 L60.1940206,71.8536991" id="Line-16" sketch:type="MSShapeGroup"></path>
            <path d="M7.63148113,85.2890342 C15.1112915,80.8990967 30.0709122,72.1192217 30.0709122,72.1192217 L52.6522546,85.2926766" id="Line-11" sketch:type="MSShapeGroup"></path>
            <path d="M0,3.31289711 L0,54.2805449 C0,54.2805449 20.0901732,66.0007069 30.1352598,71.8607879" id="Line-13" sketch:type="MSShapeGroup" transform="translate(15.035456, 37.716059) scale(-1, 1) translate(-15.035456, -37.716059) "></path>
        </g>
        <g id="Group-20" sketch:type="MSLayerGroup" transform="translate(139.283503, 169.135617) scale(-1, 1) translate(-139.283503, -169.135617) translate(109.283503, 133.135617)" stroke="#ECEFF1" stroke-width="6" stroke-linecap="square">
            <path d="M30.0709122,0.19162641 L30.0709122,54.2805449 C30.0709122,54.2805449 50.1529845,65.9959811 60.1940206,71.8536991" id="Line-16" sketch:type="MSShapeGroup"></path>
            <path d="M45.3612066,7.44157522 L45.3612066,44.0870154 C45.3612066,44.0870154 55.2102796,49.8327464 60.1348162,52.705612" id="Line-12" sketch:type="MSShapeGroup"></path>
            <path d="M0,3.31289711 L0,54.2805449 C0,54.2805449 20.0901732,66.0007069 30.1352598,71.8607879" id="Line-13" sketch:type="MSShapeGroup" transform="translate(15.035456, 37.716059) scale(-1, 1) translate(-15.035456, -37.716059) "></path>
            <path d="M-1.77635684e-15,7.85518963 L-1.77635684e-15,44.0870154 C-1.77635684e-15,44.0870154 9.9626558,49.8990081 14.9439837,52.8050044" id="Line-15" sketch:type="MSShapeGroup" transform="translate(7.390309, 30.325750) scale(-1, 1) translate(-7.390309, -30.325750) "></path>
        </g>
        <g id="Group-21" sketch:type="MSLayerGroup" transform="translate(185.664062, 131.419557) scale(-1, 1) translate(-185.664062, -131.419557) translate(155.664062, 95.419557)" stroke="#ECEFF1" stroke-width="6" stroke-linecap="square">
            <path d="M30.0709122,0.19162641 L30.0709122,54.2805449 C30.0709122,54.2805449 50.1529845,65.9959811 60.1940206,71.8536991" id="Line-16" sketch:type="MSShapeGroup"></path>
            <path d="M45.3612066,7.44157522 L45.3612066,44.0870154 C45.3612066,44.0870154 55.2102796,49.8327464 60.1348162,52.705612" id="Line-12" sketch:type="MSShapeGroup"></path>
            <path d="M0,3.31289711 L0,54.2805449 C0,54.2805449 20.0901732,66.0007069 30.1352598,71.8607879" id="Line-13" sketch:type="MSShapeGroup" transform="translate(15.035456, 37.716059) scale(-1, 1) translate(-15.035456, -37.716059) "></path>
        </g>
        <g id="Group-24" sketch:type="MSLayerGroup" transform="translate(182.018915, 62.997115) scale(-1, 1) translate(-182.018915, -62.997115) translate(156.018915, 20.497115)" stroke="#ECEFF1" stroke-width="6" stroke-linecap="square">
            <path d="M22.425765,0.19162641 L22.425765,54.2805449 C22.425765,54.2805449 42.5078373,65.9959811 52.5488735,71.8536991" id="Line-16" sketch:type="MSShapeGroup"></path>
            <path d="M-0.0136660384,85.2890342 C7.46614432,80.8990967 22.425765,72.1192217 22.425765,72.1192217 L45.0071074,85.2926766" id="Line-11" sketch:type="MSShapeGroup"></path>
            <path d="M37.7160594,7.44157522 L37.7160594,44.0870154 C37.7160594,44.0870154 47.5651325,49.8327464 52.489669,52.705612" id="Line-12" sketch:type="MSShapeGroup"></path>
        </g>
        <g id="Group-25" sketch:type="MSLayerGroup" transform="translate(139.283503, 100.713174) scale(-1, 1) translate(-139.283503, -100.713174) translate(109.283503, 58.213174)" stroke="#ECEFF1" stroke-width="6" stroke-linecap="square">
            <path d="M30.0709122,0.19162641 L30.0709122,54.2805449 C30.0709122,54.2805449 50.1529845,65.9959811 60.1940206,71.8536991" id="Line-16" sketch:type="MSShapeGroup"></path>
            <path d="M7.63148113,85.2890342 C15.1112915,80.8990967 30.0709122,72.1192217 30.0709122,72.1192217 C30.0709122,72.1192217 45.1251405,80.901525 52.6522546,85.2926766" id="Line-11" sketch:type="MSShapeGroup"></path>
            <path d="M45.3612066,7.44157522 L45.3612066,44.0870154 C45.3612066,44.0870154 55.2102796,49.8327464 60.1348162,52.705612" id="Line-12" sketch:type="MSShapeGroup"></path>
            <path d="M0,3.31289711 L0,54.2805449 C0,54.2805449 20.0901732,66.0007069 30.1352598,71.8607879" id="Line-13" sketch:type="MSShapeGroup" transform="translate(15.035456, 37.716059) scale(-1, 1) translate(-15.035456, -37.716059) "></path>
            <path d="M-1.77635684e-15,7.85518963 L-1.77635684e-15,44.0870154 C-1.77635684e-15,44.0870154 9.9626558,49.8990081 14.9439837,52.8050044" id="Line-15" sketch:type="MSShapeGroup" transform="translate(7.390309, 30.325750) scale(-1, 1) translate(-7.390309, -30.325750) "></path>
        </g>
        <g id="Group-26" sketch:type="MSLayerGroup" transform="translate(139.283503, 25.790732) scale(-1, 1) translate(-139.283503, -25.790732) translate(109.283503, -16.709268)" stroke="#ECEFF1" stroke-width="6" stroke-linecap="square">
            <path d="M30.0709122,0.19162641 L30.0709122,54.2805449 C30.0709122,54.2805449 50.1529845,65.9959811 60.1940206,71.8536991" id="Line-16" sketch:type="MSShapeGroup"></path>
            <path d="M7.63148113,85.2890342 C15.1112915,80.8990967 30.0709122,72.1192217 30.0709122,72.1192217 C30.0709122,72.1192217 45.1251405,80.901525 52.6522546,85.2926766" id="Line-11" sketch:type="MSShapeGroup"></path>
            <path d="M45.3612066,7.44157522 L45.3612066,44.0870154 C45.3612066,44.0870154 55.2102796,49.8327464 60.1348162,52.705612" id="Line-12" sketch:type="MSShapeGroup"></path>
            <path d="M0,3.31289711 L0,54.2805449 C0,54.2805449 20.0901732,66.0007069 30.1352598,71.8607879" id="Line-13" sketch:type="MSShapeGroup" transform="translate(15.035456, 37.716059) scale(-1, 1) translate(-15.035456, -37.716059) "></path>
            <path d="M-1.77635684e-15,7.85518963 L-1.77635684e-15,44.0870154 C-1.77635684e-15,44.0870154 9.9626558,49.8990081 14.9439837,52.8050044" id="Line-15" sketch:type="MSShapeGroup" transform="translate(7.390309, 30.325750) scale(-1, 1) translate(-7.390309, -30.325750) "></path>
        </g>
        <g id="Group-27" sketch:type="MSLayerGroup" transform="translate(182.018915, -11.425327) scale(-1, 1) translate(-182.018915, 11.425327) translate(156.018915, -54.425327)" stroke="#ECEFF1" stroke-width="6" stroke-linecap="square">
            <path d="M22.425765,0.19162641 L22.425765,54.2805449 C22.425765,54.2805449 42.5078373,65.9959811 52.5488735,71.8536991" id="Line-16" sketch:type="MSShapeGroup"></path>
            <path d="M-0.0136660384,85.2890342 C7.46614432,80.8990967 22.425765,72.1192217 22.425765,72.1192217 L45.5179557,85.5906942" id="Line-11" sketch:type="MSShapeGroup"></path>
        </g>
    </g>
</svg>