<?xml version="1.0" encoding="UTF-8" standalone="no"?>
<svg width="33px" height="25px" viewBox="0 0 33 25" version="1.1" xmlns="http://www.w3.org/2000/svg" xmlns:xlink="http://www.w3.org/1999/xlink">

    <g transform="translate(1.000000, 0.000000)">
        <path d="M1.056,2.48070963 C1.92355556,3.07463465 13.9431111,11.2744131 14.3911111,11.5792796 C14.8373333,11.884146 15.4168889,12.0309336 16,12.0309336 C16.5848889,12.0309336 17.1644444,11.884146 17.6106667,11.5770213 C18.0586667,11.2721549 30.0764444,3.07237638 30.944,2.47845136 C31.8133333,1.88678461 32.6346667,0.0282283754 31.04,0.0282283754 L0.961777778,0.0282283754 C-0.632888889,0.0282283754 0.186666667,1.88678461 1.056,2.48070963 L1.056,2.48070963 Z M31.312,4.81543151 C30.3253333,5.47032982 18.2151111,13.5120294 17.6106667,13.9140015 C17.0062222,14.3159735 16.5848889,14.3679137 16,14.3679137 C15.4168889,14.3679137 14.9955556,14.3159735 14.3911111,13.9140015 C13.7866667,13.5120294 1.67466667,5.46807155 0.689777778,4.81543151 C-0.00533333333,4.35474443 -2.2697893e-14,4.89447096 -2.2697893e-14,5.30999265 L-2.2697893e-14,21.8744033 C-2.2697893e-14,22.8228767 0.993777778,24.0423426 1.76355556,24.0423426 L30.2382222,24.0423426 C31.0097778,24.0423426 32,22.8228767 32,21.8766616 L32,5.31225092 C32,4.89447096 32.0071111,4.35474443 31.312,4.81543151 L31.312,4.81543151 Z"></path>
    </g>
</svg>
