<?xml version="1.0" encoding="UTF-8" standalone="no"?>
<svg width="33px" height="33px" viewBox="0 0 33 33" version="1.1" xmlns="http://www.w3.org/2000/svg" xmlns:xlink="http://www.w3.org/1999/xlink">
    <g stroke="none" stroke-width="1" fill="none" fill-rule="evenodd">
        <g id="GitHub-Mark" transform="translate(-136.000000, -54.000000)">
            <path class="shape" d="M152.318527,54.455 C143.48437,54.455 136.32,61.7996728 136.32,70.8604189 C136.32,78.1084115 140.904057,84.256667 147.262018,86.4259287 C148.062534,86.5769915 148.354255,86.0704276 148.354255,85.6353667 C148.354255,85.2466318 148.340504,84.2143694 148.332646,82.8457406 C143.882172,83.8367125 142.943162,80.6462664 142.943162,80.6462664 C142.215331,78.7509319 141.166312,78.2463822 141.166312,78.2463822 C139.713597,77.2292261 141.276322,77.2493678 141.276322,77.2493678 C142.882264,77.3651826 143.72698,78.9402639 143.72698,78.9402639 C145.154157,81.4468991 147.472215,80.7228048 148.383722,80.3028503 C148.529092,79.2433966 148.94261,78.5203094 149.399346,78.1104257 C145.846628,77.6965136 142.111215,76.2886084 142.111215,70.0023822 C142.111215,68.2117847 142.73493,66.7464756 143.758411,65.6004126 C143.593397,65.1854934 143.044332,63.5167532 143.915568,61.258868 C143.915568,61.258868 145.258273,60.8177647 148.314966,62.9407004 C149.59088,62.5761355 150.960106,62.3948602 152.320491,62.3878106 C153.679894,62.3948602 155.048138,62.5761355 156.326016,62.9407004 C159.380745,60.8177647 160.721486,61.258868 160.721486,61.258868 C161.594686,63.5167532 161.045621,65.1854934 160.881589,65.6004126 C161.907035,66.7464756 162.525838,68.2117847 162.525838,70.0023822 C162.525838,76.3047218 158.784532,77.6914782 155.22101,78.0973336 C155.794631,78.6038974 156.306372,79.6049402 156.306372,81.1357098 C156.306372,83.3281344 156.286727,85.0975832 156.286727,85.6353667 C156.286727,86.0744559 156.575502,86.5850481 157.386822,86.4249216 C163.739872,84.2506245 168.32,78.1063973 168.32,70.8604189 C168.32,61.7996728 161.15563,54.455 152.318527,54.455"></path>
        </g>
    </g>
</svg>
