<?xml version="1.0" encoding="UTF-8" standalone="no"?>
<svg width="32px" height="28px" viewBox="0 0 32 28" version="1.1" xmlns="http://www.w3.org/2000/svg" xmlns:xlink="http://www.w3.org/1999/xlink">
    <g id="Page-1" stroke="none" stroke-width="1" fill="none" fill-rule="evenodd">
        <g transform="translate(0.000000, 1.000000)">
            <path d="M10.0782418,27 C6.36542125,27 2.90953846,25.8707432 0,23.9352568 C0.514344322,23.9982568 1.03771429,24.0304865 1.56835165,24.0304865 C4.64855678,24.0304865 7.48342857,22.9399054 9.73350916,21.1103514 C6.85655678,21.0552568 4.42854212,19.0830405 3.5919707,16.3728243 C3.99331868,16.4524865 4.40521612,16.4951757 4.82883516,16.4951757 C5.42851282,16.4951757 6.00931868,16.4118649 6.56105495,16.2559459 C3.55328938,15.6293514 1.28715018,12.8721892 1.28715018,9.567 C1.28715018,9.5382973 1.28715018,9.50971622 1.28761905,9.48125676 C2.17412454,9.99218919 3.18780952,10.2990405 4.26561172,10.3344324 C2.50150916,9.11116216 1.34071795,7.02316216 1.34071795,4.65652703 C1.34071795,3.40637838 1.66493773,2.23455405 2.23085714,1.22704054 C5.47352381,5.35414865 10.3179487,8.06995946 15.7820952,8.35443243 C15.6700366,7.85517568 15.6117802,7.33451351 15.6117802,6.79986486 C15.6117802,3.03263514 18.5555458,-0.0216486486 22.1865495,-0.0216486486 C24.0774799,-0.0216486486 25.7861392,0.806837838 26.9854945,2.13263514 C28.4830476,1.82663514 29.8901099,1.25890541 31.160381,0.477243243 C30.6694799,2.07012162 29.6270769,3.40698649 28.2695971,4.25128378 C29.5995311,4.08636486 30.8666374,3.71967568 32.0457143,3.17712162 C31.1642491,4.54512162 30.0495238,5.74662162 28.7650696,6.70840541 C28.7777289,7.00090541 28.7840586,7.29510811 28.7840586,7.59089189 C28.7840586,16.6053649 22.1711941,27 10.0782418,27" fill="#90A4AE"></path>
        </g>
    </g>
</svg>
